<?xml version="1.0" encoding="UTF-8"?>
<svg width="418" height="400" version="1.1" viewBox="0 0 418 400" xmlns="http://www.w3.org/2000/svg"><style>/* when in dark mode, set currentColor to white */
    @media (prefers-color-scheme: dark) {
      :root { color: white; }
    }
    /* when in light mode, set currentColor to black */
    @media (prefers-color-scheme: light) {
      :root { color: black; }
    }</style><path transform="translate(-292 -318)" d="m471 716c-71-10-132-55-160-118-13-29-19-55-19-86 0-46 13-86 41-122 19-24 49-47 78-59 24-9.7 43-14 66-14 15 0.063 20 1.2 21 4.6 0.27 1.9-1.3 3-11 7.8-17 8.5-27 16-41 28-30 27-50 67-56 112-2 14-2 39-8e-3 52 1.8 12 7 31 11 42 18 43 54 76 100 92 47 16 103 9.7 144-16 9-5.7 12-6.4 13-2.9 0.58 4.4-18 25-33 38-29 23-62 37-98 42-14 1.9-42 1.9-55 0.059zm53-114c-7.4-4.5-7.7-7.8-2.4-27 1.6-5.8 5.4-20 8.4-32 19-71 24-92 28-107 8.7-34 9.6-36 15-40 9.1-5.6 20 1.6 18 12-0.61 3.5-13 51-17 64-1 3.6-4.2 15-7 26-5.4 20-14 53-21 78-4.9 18-6.4 21-12 24-4.8 2.8-7 2.8-11 0.31zm-33-24c-1.6-0.72-18-17-37-35-33-33-34-34-34-38 0.02-2.1 0.68-5 1.5-6.5 0.79-1.5 13-14 27-28 40-39 42-41 46-42 7.4-1.4 15 4.7 15 13 0.041 3.3-1.8 5.3-29 33-16 16-30 30-30 30s13 13 28 28c15 15 28 28 29 30 2.5 5.5-0.16 13-5.8 16-3.6 1.9-5.6 1.9-9.6 0.16zm136-0.18c-5.7-3.1-7.5-12-3.5-17 1.2-1.7 14-15 29-29l27-26-29-29c-16-16-29-29-30-30s-0.94-3.5-0.94-5.8c-0.013-3.6 0.55-4.9 3.4-7.8 2.8-2.8 4.1-3.4 7.8-3.4 2.5 4e-3 5.5 0.77 7.1 1.8 4.5 2.9 67 64 69 68 3.3 5 2.6 9-3 15-7.9 8.6-63 61-66 63-3.8 2.3-8.1 2.4-12 0.38z" fill="currentColor"/></svg>
