<svg id="Grupa_1" data-name="Grupa 1" xmlns="http://www.w3.org/2000/svg" width="1124" height="342" viewBox="0 0 1124 342">
  <defs>
    <style>
      .cls-1 {
        fill: currentColor;
        fill-rule: evenodd;
      }
    </style>
  </defs>
  <path id="GEODETA" class="cls-1" d="M147.5,108.43H94.2v22.841h25.394v25.941q-6.7,7.442-22.417,7.442-15.627,0-23.72-12.093T65.362,116.8V107.19Q65.453,83.729,72.9,71.843T94.569,59.957q11.162,0,17.534,5.995t8.232,18.914H147.5Q144.985,60.475,131.4,47.71T93.732,34.946q-17.3,0-30.184,8.733T43.828,68.9q-6.837,16.487-6.837,39.016v10.232q0.185,21.912,7.395,38.137T64.85,181.035q13.255,8.528,30.835,8.527a81.176,81.176,0,0,0,30.51-5.53q13.766-5.528,21.3-15.554V108.43Zm146-10.439H239.915V62.128h62.693V37.013h-90.6V187.5h90.785V162.587H239.915V122.279h53.578V97.991Zm178.832,10.956q0-22.117-7.209-39.016T444.745,43.989a54.586,54.586,0,0,0-60.183,0q-13.163,9.045-20.37,25.942t-7.209,39.119v7.441q0.091,21.705,7.348,38.4T384.8,180.57a54.662,54.662,0,0,0,60.229-.1q13.161-9.095,20.231-25.838t7.07-38.965v-6.717Zm-28.278,7.234q-0.093,23.463-7.627,35.709t-21.58,12.247q-14.326,0-21.952-12.712t-7.628-35.761v-7.338q0.092-23.46,7.721-35.6t21.673-12.144q14.138,0,21.766,12.3t7.627,35.967v7.338ZM576.463,187.5a58.848,58.848,0,0,0,31.905-9.095,59.441,59.441,0,0,0,21.906-25.322q7.766-16.329,7.767-37.31v-6.925q0-20.979-7.907-37.465t-22-25.425a58.383,58.383,0,0,0-31.952-8.94H534.512V187.5h41.951ZM576.184,62.128q16.464,0,25.022,11.834t8.558,34.778V116.7q-0.187,22.119-8.837,34t-25.022,11.886H562.418V62.128h13.766ZM781.712,97.991H728.134V62.128h62.694V37.013h-90.6V187.5h90.785V162.587h-62.88V122.279h53.578V97.991ZM953.1,37.013H842.784V62.128h40.928V187.5h27.9V62.128H953.1V37.013ZM1085.61,187.5h29.67L1064.59,37.013h-25.86L988.315,187.5h29.675l9.3-31.006h48.93ZM1051.66,75.047l17.02,56.327h-33.86ZM28.248,229.094V218.759h1129.5v10.335H28.248Z"/>
  <path id="GRZEGORZ_CEBULSKI" data-name="GRZEGORZ CEBULSKI" class="cls-1" d="M88.162,282.421H64.177V292.7H75.6v11.674q-3.014,3.348-10.088,3.349-7.032,0-10.674-5.442T51.2,286.188v-4.325q0.041-10.557,3.39-15.906a10.814,10.814,0,0,1,9.753-5.349q5.023,0,7.89,2.7t3.7,8.511H88.162q-1.13-10.976-7.241-16.72t-16.952-5.744a23.622,23.622,0,0,0-13.583,3.93,24.68,24.68,0,0,0-8.874,11.348,45.665,45.665,0,0,0-3.077,17.557v4.605a42.882,42.882,0,0,0,3.328,17.161,24.768,24.768,0,0,0,9.209,11.139,25.081,25.081,0,0,0,13.876,3.837,36.543,36.543,0,0,0,13.729-2.488,21.787,21.787,0,0,0,9.585-7V282.421ZM146.038,318h13.478v-0.651l-13.185-27.673a18.975,18.975,0,0,0,8.183-7.371,22.633,22.633,0,0,0,2.7-11.558q0-9.767-5.86-15.115t-16.66-5.349H112.049V318h12.558V293.211h10Zm-21.431-56.415h10.087q5.066,0,7.514,2.744a10.915,10.915,0,0,1,2.449,7.534,10.14,10.14,0,0,1-2.6,7.372q-2.6,2.674-7.325,2.674H124.607V261.585Zm99.231-3.3v-8H178.13v11.3h30.1l-30.137,48.229V318h46.42V306.791H193.784Zm58.965,19.44h-24.11V261.585H286.9v-11.3h-40.77V318h40.854V306.791h-28.3V288.653H282.8v-10.93Zm73.489,4.7H332.307V292.7h11.428v11.674q-3.015,3.348-10.088,3.349-7.032,0-10.674-5.442t-3.642-16.092v-4.325q0.042-10.557,3.391-15.906a10.813,10.813,0,0,1,9.753-5.349,11.059,11.059,0,0,1,7.89,2.7q2.866,2.7,3.7,8.511h12.223q-1.131-10.976-7.242-16.72T332.1,249.353a23.624,23.624,0,0,0-13.583,3.93,24.682,24.682,0,0,0-8.874,11.348,45.667,45.667,0,0,0-3.076,17.557v4.605a42.885,42.885,0,0,0,3.327,17.161,24.776,24.776,0,0,0,9.209,11.139,25.083,25.083,0,0,0,13.876,3.837,36.54,36.54,0,0,0,13.729-2.488,21.784,21.784,0,0,0,9.586-7V282.421Zm73.949,0.232A44.421,44.421,0,0,0,427,265.1a26.176,26.176,0,0,0-9.166-11.673,24.561,24.561,0,0,0-27.082,0,26.164,26.164,0,0,0-9.167,11.673,44.549,44.549,0,0,0-3.244,17.6v3.348a43.453,43.453,0,0,0,3.306,17.278,26.168,26.168,0,0,0,9.209,11.558,24.6,24.6,0,0,0,27.1-.047,25.974,25.974,0,0,0,9.1-11.627,44.8,44.8,0,0,0,3.181-17.534v-3.023Zm-12.724,3.256q-0.042,10.558-3.433,16.069a10.77,10.77,0,0,1-9.711,5.511,10.891,10.891,0,0,1-9.878-5.721q-3.433-5.719-3.433-16.092v-3.3q0.042-10.557,3.475-16.022a11.434,11.434,0,0,1,19.547.07q3.432,5.535,3.433,16.185v3.3ZM487.071,318h13.478v-0.651l-13.185-27.673a18.975,18.975,0,0,0,8.183-7.371,22.633,22.633,0,0,0,2.7-11.558q0-9.767-5.86-15.115t-16.659-5.349H453.082V318H465.64V293.211h10ZM465.64,261.585h10.088q5.064,0,7.513,2.744a10.91,10.91,0,0,1,2.449,7.534,10.143,10.143,0,0,1-2.595,7.372q-2.6,2.674-7.326,2.674H465.64V261.585Zm99.232-3.3v-8H519.163v11.3h30.1l-30.138,48.229V318h46.42V306.791H534.818Zm92.646,37.16q-0.418,6.186-3.286,9.139t-8.685,2.954q-6.447,0-9.439-5.07t-2.993-16.045v-5.116q0.084-10.511,3.2-15.511a10.339,10.339,0,0,1,9.4-5q5.777,0,8.6,2.953t3.286,9.512h12.557q-1-11.347-7.45-17.627t-16.995-6.279a22.941,22.941,0,0,0-13.373,3.977,25.193,25.193,0,0,0-8.853,11.417,44.485,44.485,0,0,0-3.1,17.209V286.1q0,15.3,6.718,24.068t18.439,8.767q10.715,0,17.266-6.279t7.263-17.208H657.518Zm71.187-17.72H704.6V261.585h28.212v-11.3H692.038V318h40.853V306.791H704.6V288.653h24.11v-10.93ZM777.665,318q10.382-.093,15.99-5.116t5.609-14.79a16.749,16.749,0,0,0-2.7-9.674,12.823,12.823,0,0,0-7.388-5.255,13.611,13.611,0,0,0,6.4-5.558,16.558,16.558,0,0,0,2.3-8.767q0-9.114-5.735-13.836t-16.827-4.721H753.974V318h23.691Zm0.377-29.487q8.665,0.14,8.665,9.442a8.488,8.488,0,0,1-2.491,6.488,9.7,9.7,0,0,1-6.927,2.348H766.531V288.513h11.511Zm-11.511-26.928h8.79q5.19,0,7.6,2.023t2.406,6.627q0,8.233-9.5,8.419h-9.293V261.585Zm89.4-11.3V295.35q-0.166,12.372-10.757,12.372a10.363,10.363,0,0,1-7.932-3.047q-2.868-3.045-2.867-9.7v-44.7H821.812V295.4q0.126,10.977,6.4,17.254t16.953,6.279q10.84,0,17.1-6.465t6.258-17.58v-44.6h-12.6Zm49.17,0H892.539V318h39.22V306.791H905.1V250.283Zm76.67,55.6a10.858,10.858,0,0,1-6.99,2.024q-12.055,0-12.055-11.209h-12.6a21.707,21.707,0,0,0,3.034,11.534,20.843,20.843,0,0,0,8.811,7.837,28.465,28.465,0,0,0,12.809,2.86q10.13,0,16.115-5t5.986-13.789a18.726,18.726,0,0,0-4.9-13.209q-4.9-5.3-15.613-8.883a32.152,32.152,0,0,1-8.811-4.186,6.682,6.682,0,0,1-2.993-5.534,7.1,7.1,0,0,1,2.553-5.7q2.553-2.161,7.158-2.162,4.772,0,7.409,2.581a9.659,9.659,0,0,1,2.637,7.232h12.557a21.021,21.021,0,0,0-2.825-10.883,19.2,19.2,0,0,0-7.932-7.418,25.07,25.07,0,0,0-11.637-2.628,27.483,27.483,0,0,0-11.7,2.418,18.518,18.518,0,0,0-8,6.721,17.624,17.624,0,0,0-2.784,9.79q0,10.559,10.381,16.79a60.566,60.566,0,0,0,10.339,4.627q6.529,2.349,9.041,4.465a7.494,7.494,0,0,1,2.512,6.07A6.846,6.846,0,0,1,981.766,305.884ZM1053.83,318h14.95l-22.27-37.626,21.64-30.091H1052.7l-15.53,22.278-5.52,8.418v-30.7h-12.56V318h12.56V298.652l6.53-7.813Zm46.74-67.717h-12.55V318h12.55V250.283Z"/>
</svg>
