<?xml version="1.0" encoding="UTF-8"?>
<svg width="685" height="700" version="1.1" viewBox="0 0 685 700" xmlns="http://www.w3.org/2000/svg"><g transform="translate(-172 -150)" fill="currentColor"><path d="m497 422c-15 3.1-28 10-39 22-12 15-18 32-17 52 2.5 14 6.8 27 17 37 9.3 12 23 18 37 22 19 2.9 38 0.42 52-11 14-9.1 24-24 27-40 4.5-16 1.5-34-6-47-8.3-17-26-29-43-33-8.5-2.9-18-1.8-28-2z"/><path d="m573 220c-8.6 6.3-16 15-23 23-14-3.1-28-5.4-44-5-11-1.7-25-3.4-33 6-16 13-28 29-41 44-11 15-23 30-31 47 11-3.5 19-12 30-15 11-5 23-9.2 35-11 18-5.4 40-4.4 60-3 14 2.5 27 5.3 40 10 18 6.5 34 16 49 27 22 17 41 39 53 63 7.5 14 13 28 16 44 4.2 16 5.2 33 5 51-1.7 12-2.7 24-5 35-4 14-8.5 28-16 40-11 22-29 42-49 58-15 11-31 19-48 25-13 4.8-26 7.9-40 9-15 0.44 0.97 4.7 7 7 13 5.1 27 8.6 41 12 21 4.3 42 7 64 6 8.9-1.2 20 0.14 27-5 2.9-9.3 14-15 22-20 9.8 2.4 18 7.7 29 8 9.3-4 12-15 17-23-0.86-11-9.7-18-13-28-3.9-6.1 7.3-13 9-19 1.4-12 14-6 23-7 9.4 0.95 17-2.9 18-12 1.5-6.7 5.7-12 7-19-7.5-8.3-20-13-25-22 1.6-8.6-2.5-24 7-26 9.5-4 20-6.6 28-13-0.84-10 2-24-3-31-8.5-4.9-19-5.8-27-11-0.86-9.7-3.8-18-5-28 7.3-8.5 19-14 24-23-4.1-9.4-6.3-21-14-28-9.2-2.4-26 5-30-4-2.2-7.1-7.7-13-10-20 5.6-7.9 11-16 14-25-3.9-9.4-10-18-17-26-12 1.2-23 5.1-35 8-6.8-7.6-19-14-13-25 0.28-8.2 7.5-19 1.2-26-7.3-5.1-14-12-22-14-8.9 6.6-18 12-28 17-7.6-6.1-17-7.9-25-13-0.55-9.9 5.9-22-0.77-31-9.3-2.6-18-7.6-28-7.2z"/><path d="m506 150c-12 1.8-25 1.3-37 4-15 2-30 5.4-44 9-13 3.8-26 8-38 13-18 7.6-35 16-51 26-26 16-50 37-73 61-17 19-31 38-44 59-7.6 13-14 26-21 40-3.2 11-8.3 21-11 32-4.5 13-7.9 26-10 40-5.8 27-5.1 57-5 86 1.9 13 4 27 6 40 2.7 15 6.9 30 11 45 5 14 9.3 28 17 41 6.5 15 16 30 24 44 17 27 39 52 64 74 19 15 38 29 59 41 13 7 26 14 40 19 13 5.8 27 10 41 14 16 4.6 33 7.9 51 10 24 3.1 51 2.3 75 1 12-2 24-3.9 36-6 14-3.9 28-7.4 41-12 16-6.2 32-12 47-21 17-8.7 34-19 49-32 25-18 48-44 68-68 12-16 22-32 32-49 7.4-14 15-28 21-43 3.6-4.5 6.6-19-3-12-14 14-29 30-45 42-19 15-39 27-60 36-13 5.7-26 11-40 14-13 3.9-27 7-41 8-19 3.6-42 1.9-62 1-12-2.3-24-3.8-36-7-14-3.5-28-7.9-41-13-18-7.5-35-16-52-26-24-14-46-35-66-57-12-16-22-32-31-49-3.8-12-9.7-23-12-35-4-12-6.1-24-7-37-3.3-18-1.9-38-1-57 2.2-12 3.7-25 7-37 3.8-15 9-29 15-43 8.8-19 19-38 31-55 18-27 43-54 70-75 16-12 33-23 51-31 12-5.7 24-10 36-14 8.2-4.7 20-3.4 26-11-7.9-4.3-20-5.3-30-7-18-2.9-37-3.4-56-4z"/></g></svg>
